<?xml version="1.0" encoding="UTF-8"?>
<svg version="1.1" xmlns="http://www.w3.org/2000/svg" width="70" height="70">
<path d="M0 0 C0.58265625 0.46277344 1.1653125 0.92554688 1.765625 1.40234375 C1.765625 2.06234375 1.765625 2.72234375 1.765625 3.40234375 C2.425625 3.40234375 3.085625 3.40234375 3.765625 3.40234375 C11.12246918 15.74285656 8.57744856 27.86502736 5.35498047 41.16796875 C3.98957104 46.3445334 2.60901873 51.55895002 -1.234375 55.40234375 C-5.78993056 54.84678819 -5.78993056 54.84678819 -7.234375 53.40234375 C-7.76227532 46.36995731 -5.80993556 40.0621493 -4.01171875 33.31640625 C-1.96058173 25.25250755 -0.6249678 17.66456666 -4.828125 10.12890625 C-8.09753237 6.11480054 -13.26355366 4.34538964 -18.234375 3.40234375 C-30.1504887 2.66247943 -30.1504887 2.66247943 -41.234375 6.40234375 C-45.53978622 12.14624517 -45.12830235 18.53076307 -44.234375 25.40234375 C-43.22386961 30.32640807 -41.83955216 35.13652192 -40.42578125 39.95703125 C-37.35028321 50.7815088 -37.35028321 50.7815088 -39.359375 54.46484375 C-42.00860222 55.78945736 -43.47220185 55.32306813 -46.234375 54.40234375 C-48.53270761 52.10401114 -48.86187571 50.77594299 -49.70703125 47.67578125 C-49.96677734 46.72574219 -50.22652344 45.77570312 -50.49414062 44.796875 C-50.75904297 43.80042969 -51.02394531 42.80398437 -51.296875 41.77734375 C-51.56564453 40.80410156 -51.83441406 39.83085938 -52.11132812 38.828125 C-55.31292657 26.96384748 -57.4003686 14.99028351 -52.234375 3.40234375 C-51.574375 2.41234375 -50.914375 1.42234375 -50.234375 0.40234375 C-49.574375 0.40234375 -48.914375 0.40234375 -48.234375 0.40234375 C-48.234375 -0.25765625 -48.234375 -0.91765625 -48.234375 -1.59765625 C-46.67585745 -2.41776937 -45.11235784 -3.22841838 -43.546875 -4.03515625 C-42.67675781 -4.48761719 -41.80664062 -4.94007813 -40.91015625 -5.40625 C-27.71124494 -11.28313752 -11.72153579 -7.24302448 0 0 Z " fill="#7E3603" transform="translate(58.234375,12.59765625)"/>
<path d="M0 0 C4.38299083 2.19149542 7.20074724 4.40190962 9 9 C9.68426057 14.04325384 9.5739862 17.83076884 7.3125 22.4375 C3.66616794 26.47803012 1.0055627 28.15438768 -4.4375 28.4375 C-8.95278304 28.2722151 -11.56215039 27.0285818 -15 24 C-18.38570467 20.16286804 -18.51291172 16.36598538 -18.3515625 11.4375 C-17.67607752 6.75413746 -15.29923939 4.11363377 -11.8125 1.125 C-7.79880044 -0.48047982 -4.26304489 -0.67667379 0 0 Z M-10 10 C-11.16977494 12.34872531 -11.16977494 12.34872531 -11 15 C-9.76251559 17.86575338 -8.90791743 19.51577737 -6.125 21 C-2.96367657 21 -1.43036258 19.97056425 1 18 C2.16977494 15.65127469 2.16977494 15.65127469 2 13 C0.76251559 10.13424662 -0.09208257 8.48422263 -2.875 7 C-6.03632343 7 -7.56963742 8.02943575 -10 10 Z " fill="#7D3603" transform="translate(46,22)"/>
</svg>
