<?xml version="1.0" encoding="UTF-8"?>
<svg version="1.1" xmlns="http://www.w3.org/2000/svg" width="64" height="45">
<path d="M0 0 C1.41694656 -0.01441132 1.41694656 -0.01441132 2.86251831 -0.02911377 C4.39067673 -0.03548859 4.39067673 -0.03548859 5.94970703 -0.04199219 C6.99901398 -0.04769226 8.04832092 -0.05339233 9.12942505 -0.05926514 C11.3502705 -0.06871405 13.57112997 -0.07524869 15.79199219 -0.07910156 C19.18726066 -0.08880926 22.58192435 -0.11983503 25.97705078 -0.15136719 C28.13459927 -0.15789714 30.29215209 -0.16314764 32.44970703 -0.16699219 C33.46443085 -0.17933899 34.47915466 -0.19168579 35.52462769 -0.20440674 C44.59462903 -0.17578232 44.59462903 -0.17578232 48.33251953 3.16113281 C51.36024358 7.00843472 51.7168312 9.98769285 51.73095703 14.81738281 C51.73482422 16.08710938 51.73869141 17.35683594 51.74267578 18.66503906 C51.73107422 19.98375 51.71947266 21.30246094 51.70751953 22.66113281 C51.71912109 23.97984375 51.73072266 25.29855469 51.74267578 26.65722656 C51.73880859 27.92695313 51.73494141 29.19667969 51.73095703 30.50488281 C51.72757324 31.66181641 51.72418945 32.81875 51.72070312 34.01074219 C51.16464356 38.52356773 49.69644763 40.9491569 46.32080078 43.94873047 C41.76510901 45.79706097 37.39102832 45.5889026 32.52001953 45.55957031 C30.95030396 45.56387558 30.95030396 45.56387558 29.34887695 45.56826782 C27.13996844 45.57030609 24.93104179 45.56479286 22.72216797 45.55224609 C19.34447807 45.53618966 15.96798479 45.55210344 12.59033203 45.57128906 C10.44189189 45.56930659 8.2934525 45.56546283 6.14501953 45.55957031 C4.63234497 45.56867935 4.63234497 45.56867935 3.08911133 45.57797241 C-3.31695192 45.51383254 -7.00891273 44.81970056 -11.66748047 40.16113281 C-13.59456487 34.6968494 -12.85199436 28.43008897 -12.85498047 22.72363281 C-12.86722656 21.49580078 -12.87947266 20.26796875 -12.89208984 19.00292969 C-12.89402344 17.81892578 -12.89595703 16.63492187 -12.89794922 15.41503906 C-12.90205811 14.33552979 -12.90616699 13.25602051 -12.91040039 12.14379883 C-12.59724519 8.29875659 -11.6876627 5.40309379 -9.22998047 2.41113281 C-6.33839844 0.09786719 -3.549524 0.02916604 0 0 Z " fill="#FF0202" transform="translate(12.66748046875,-0.1611328125)"/>
<path d="M0 0 C4.50157228 1.50052409 7.48199699 2.70502516 11.375 5.125 C12.24898437 5.66382813 13.12296875 6.20265625 14.0234375 6.7578125 C14.67570312 7.16773438 15.32796875 7.57765625 16 8 C11.97806144 11.50297874 5.60566856 17 0 17 C0 11.39 0 5.78 0 0 Z " fill="#FFF7F7" transform="translate(26,14)"/>
</svg>
